# xmcd
#
# Track frame offsets:
#	150
#	22098
#	39111
#	63794
#	88554
#	117045
#	129897
#	152467
#	171084
#	194352
#	213387
#	236878
#	258354
#
# Disc length: 3949 seconds
#
# Revision: 2
# Processed by: cddbd v1.5.1PL0 Copyright (c) Steve Scherf et al.
# Submitted via: audiograbber 1.81.03
#
DISCID=a00f6b0d
DTITLE=Willy Michl - Ois is Blues '88
DYEAR=1988
DGENRE=Balladen
TTITLE0=Isarflimmern
TTITLE1=Teufelstanz
TTITLE2=Herbstlied
TTITLE3=Ois is Blues
TTITLE4=Der Falk
TTITLE5=Wakan Tanka
TTITLE6=Frühling
TTITLE7=Sonnenuntergang
TTITLE8=Das Land Nepal
TTITLE9=Katmandu
TTITLE10=Der 1000-jährige Eskimo
TTITLE11=Die 5 Dimensionen
TTITLE12=Epilog
EXTD=Überarbeitete Neuauflage - Orchesterversion der Original Ois is Blues '79.
EXTD=\nRemixed - Remastered by Digital.\nHergestellt durch Matopa GmbH.\nVertri
EXTD=eb: www.willimichl.com.\n(c) 2004 Milly Michl
EXTT0=Komposition und Text: Willy Michl.
EXTT1=Komposition und Text: Willy Michl.
EXTT2=Komposition und Text: Willy Michl.
EXTT3=Komposition und Text: Willy Michl.
EXTT4=Komposition und Text: Willy Michl.
EXTT5=Komposition und Text: Willy Michl.
EXTT6=Komposition: Willy Michl - Text: Bengert
EXTT7=Komposition und Text: Willy Michl.
EXTT8=Komposition und Text: Willy Michl.
EXTT9=Komposition und Text: Willy Michl.
EXTT10=Komposition und Text: Willy Michl.
EXTT11=Komposition und Text: Willy Michl.
EXTT12=Komposition und Text: Willy Michl.
PLAYORDER=
